<svg viewBox="0 0 789 272" version="1.1" xmlns="http://www.w3.org/2000/svg" id="Layer_1">
  
  <path d="M685.2,271.3c-21.5,0-39.9-4.5-55.2-13.6-15.2-9.1-26.8-21.7-34.9-37.8-8.1-16.1-12.1-34.6-12.1-55.2s4.1-39.7,12.4-55.8c8.3-16.1,20-28.8,35.2-37.8,15.4-9.1,33.8-13.6,55.2-13.6s39.8,4.5,54.9,13.6c15.2,8.9,26.8,21.4,34.9,37.5,8.3,16,12.4,34.5,12.4,55.5s-4,39.1-12.1,55.2c-8.1,16.1-19.8,28.9-35.2,38.1-15.4,9.3-33.9,13.9-55.5,13.9h0ZM685.8,235c14.6,0,26.5-3.3,35.7-10,9.3-6.9,16-15.7,20.1-26.3,4.3-10.6,6.5-22,6.5-34s-1.2-17.7-3.5-26c-2.4-8.5-6.1-16.1-11.2-22.7-4.9-6.9-11.3-12.3-19.2-16.2-7.9-3.9-17.4-5.9-28.7-5.9s-26.2,3.3-35.4,10c-9.3,6.7-16.1,15.5-20.7,26.3-4.3,10.6-6.5,22.2-6.5,34.6s2.2,23.6,6.5,34.3c4.5,10.6,11.4,19.3,20.7,26s21.2,10,35.7,10h0Z"></path>
  <path d="M758.8,34.2l-7.2,23.5-114.7-33.3,7.2-23.5,114.7,33.3Z"></path>
  <path d="M102.8,271.3c-21.5,0-39.9-4.5-55.2-13.6-15.2-9.1-26.8-21.7-34.9-37.8C4.6,203.8.6,185.4.6,164.7s4.1-39.7,12.4-55.8c8.3-16.1,20-28.8,35.2-37.8,15.4-9.1,33.8-13.6,55.2-13.6s39.8,4.5,54.9,13.6c15.2,8.9,26.8,21.4,34.9,37.5,8.3,16,12.4,34.5,12.4,55.5s-4,39.1-12.1,55.2-19.8,28.9-35.2,38.1c-15.4,9.3-33.9,13.9-55.5,13.9ZM103.4,235c14.6,0,26.5-3.3,35.7-10,9.3-6.9,16-15.7,20.1-26.3,4.3-10.6,6.5-22,6.5-34s-1.2-17.7-3.5-26c-2.4-8.5-6.1-16.1-11.2-22.7-4.9-6.9-11.3-12.3-19.2-16.2-7.9-3.9-17.4-5.9-28.7-5.9s-26.2,3.3-35.4,10c-9.3,6.7-16.1,15.5-20.7,26.3-4.3,10.6-6.5,22.2-6.5,34.6s2.2,23.6,6.5,34.3c4.5,10.6,11.4,19.3,20.7,26s21.2,10,35.7,10h0Z"></path>
  <path d="M268,269.6v-78L190.9,60.7h45.2l51.7,93.9,52-93.9h44.3l-77.1,130.6v78.3h-39,0Z"></path>
  <path d="M403.3,269.6V60.7h88c9.7,0,18.5.9,26.6,2.7,8.3,1.6,15.4,4.4,21.3,8.6,5.9,4.1,10.5,9.7,13.9,16.5,3.3,6.9,5,15.6,5,26s-2.2,17.7-6.5,25.4c-4.1,7.5-10.2,13.2-18.3,17.1,11,3.2,19.5,8.9,25.4,17.1,6.1,8.3,9.2,19.1,9.2,32.5s-2.3,22.1-6.8,30.1c-4.5,8.1-10.7,14.6-18.6,19.5-7.7,4.7-16.7,8.2-27.2,10.3-10.2,2-21.2,3-32.8,3h-79.2ZM442.6,233.8h43.7c5.5,0,10.7-.4,15.7-1.2,5.1-.8,9.7-2.2,13.6-4.1,4.1-2,7.3-4.7,9.5-8.3,2.4-3.7,3.5-8.4,3.5-13.9s-1-9.4-3-12.7c-1.8-3.3-4.3-6-7.7-8-3.2-2.2-7-3.6-11.5-4.4-4.3-1-9.1-1.5-14.2-1.5h-49.6v54.1h0ZM442.6,147.3h38.7c5.9,0,11.1-.5,15.7-1.5,4.7-1.2,8.8-3,12.1-5.3,3.3-2.4,5.9-5.3,7.7-8.9,1.8-3.5,2.7-7.8,2.7-12.7.2-6.5-1.3-11.3-4.4-14.5-3-3.2-7-5.2-12.1-6.2-5.1-1.2-10.8-1.8-17.1-1.8h-43.1v50.8h-.2Z"></path>
</svg>