<svg xmlns="http://www.w3.org/2000/svg" fill="none" viewBox="0 0 921 381" height="381" width="921">
<path fill="#FDFCFB" d="M83.0941 206.992C82.6746 205.63 82.9513 204.175 83.8618 202.163C84.8035 200.382 85.2811 198.664 85.0936 197.271L85.5266 196.976C85.5266 196.976 85.7586 196.945 85.7274 196.713C85.6962 196.481 85.897 196.218 85.8345 195.754C85.772 195.289 85.7408 195.057 85.9104 194.562C89.0257 186.109 90.8601 180.427 91.476 177.981C91.476 177.981 91.6769 177.718 92.0785 177.192C92.2481 176.696 92.449 176.433 92.9131 176.37C92.6186 175.937 92.7569 175.21 93.0962 174.219C93.4354 173.228 93.5737 172.501 93.5112 172.037C93.5112 172.037 93.7433 172.005 94.145 171.479C94.3458 171.215 94.5467 170.952 95.0109 170.89C95.118 169.93 95.4259 168.707 96.1668 167.19C96.7069 165.936 97.0148 164.713 97.354 163.722C97.9878 163.164 98.7912 162.111 99.4696 160.129C100.148 158.147 100.92 156.862 101.554 156.304C101.616 156.768 101.478 157.496 101.076 158.022C100.675 158.549 100.768 159.245 100.831 159.71C100.367 159.772 100.197 160.267 100.027 160.763C99.8891 161.49 99.6883 161.754 99.4249 161.553C99.782 162.45 99.474 163.673 98.2065 164.789C97.9298 166.244 97.4522 167.962 96.5417 169.975C95.6312 171.988 95.1537 173.706 95.0778 174.897C94.9082 175.393 94.6761 175.424 94.3815 174.991C94.1048 176.446 91.9625 183.351 88.1866 195.673C87.5394 197.887 86.5843 201.324 85.3212 205.983C84.0893 210.875 82.9021 214.342 82.2862 216.788C81.9158 217.547 80.8044 219.823 79.4476 223.786C77.2383 226.683 75.0112 227.692 72.7351 226.58L71.9451 225.978C71.4497 225.808 71.1864 225.607 70.923 225.406C69.5439 223.938 68.4728 221.247 67.9417 217.301C67.1786 213.387 66.6341 211.098 66.5404 210.401C66.4779 209.937 66.1164 205.496 65.8576 196.552C65.3667 187.639 65.1257 180.583 65.3668 175.353C65.0812 169.72 65.3088 166.145 65.8176 164.659C65.166 163.329 65.1482 161.441 65.7016 158.531C65.4607 151.475 65.5633 146.972 65.8401 145.517L65.3134 145.115L65.8222 143.629C65.5098 141.308 65.4741 137.532 65.1885 131.9C64.9342 126.499 64.6352 122.523 64.5236 119.938C64.1978 119.273 63.8408 118.376 63.6533 116.984C63.4659 115.591 63.0776 114.462 62.9526 113.534C62.5956 112.637 62.0377 112.003 61.4798 111.369C60.6452 112.19 60.0427 112.98 59.4714 114.002C58.9001 115.024 58.3288 116.047 57.7888 117.301C57.0479 118.818 56.6774 119.577 56.2758 120.104C56.1374 120.831 55.7982 121.822 55.4902 123.045C55.2135 124.5 54.8743 125.49 54.9368 125.955C53.455 128.99 52.2232 133.881 50.7146 140.228C49.2373 146.806 48.175 151.202 47.5278 153.416C46.6977 157.781 45.3899 163.864 43.6046 171.666C41.5873 179.499 40.217 185.118 39.7573 188.724C37.7087 196.325 35.3699 207.036 33.0044 221.059C30.6389 235.082 29.041 244.276 28.1796 248.409C27.9966 250.56 27.644 253.207 26.9209 256.612C25.9658 260.049 25.5507 262.231 25.5061 263.655C24.8277 265.637 23.7788 268.377 22.422 272.34C20.4448 275.206 18.3427 277.143 15.8835 278.182C14.9552 278.307 14.1652 277.705 13.1119 276.902C12.554 276.268 11.3133 274.072 9.82264 270.019L8.79171 262.361C8.72923 261.897 8.66675 261.432 8.54178 260.504C8.18474 259.607 8.35434 259.112 8.78727 258.817C8.78727 258.817 8.52394 258.616 8.4927 258.384L8.26062 258.415C7.99286 254.671 7.64921 252.118 7.16721 250.292C7.16721 250.292 7.36805 250.029 7.53765 249.534C7.50641 249.302 7.70726 249.038 7.9081 248.775C6.84149 237.34 6.48896 227.7 6.88177 220.086C6.48904 215.413 6.4846 211.869 6.83721 209.223C6.50696 205.014 6.39096 198.886 6.42672 190.375C6.26164 182.127 6.08316 175.535 5.92251 170.831C6.0118 167.984 5.91363 163.744 5.56555 157.647C5.21747 151.55 4.88722 147.342 5.03899 144.958C4.53914 141.245 3.97237 133.524 3.07536 121.594C2.2096 109.896 1.42415 100.55 0.781499 94.0207C0.781499 94.0207 0.518176 93.8198 0.455695 93.3557C0.161132 92.9227 0.0986502 92.4586 0.0361704 91.9944C-0.0887912 91.0661 0.0808118 90.5707 1.00914 90.4457C1.70539 90.352 2.16955 90.2895 2.6962 90.6912C2.75868 91.1554 2.82116 91.6195 3.28533 91.5571C5.13739 112.337 6.61456 130.333 7.25269 145.605C8.35942 164.36 8.98415 181.288 9.18935 196.855C9.08223 197.815 9.03759 199.239 8.85459 201.39C8.70283 203.773 8.68942 205.429 8.81439 206.357C8.84563 206.59 8.87687 206.822 9.14019 207.022C9.20267 207.487 9.23391 207.719 9.23391 207.719C9.34087 231.333 9.84064 247.333 10.7644 255.952C10.7957 256.184 10.5948 256.447 10.5948 256.447C10.394 256.71 10.4252 256.942 10.6886 257.143C10.8135 258.072 11.0947 260.16 11.4696 262.945C11.8445 265.73 12.1881 268.283 12.9334 270.31C13.4467 272.367 14.3616 273.898 15.4774 275.165C16.6378 275.009 17.5036 274.42 18.307 273.367C19.1416 272.546 19.7129 271.524 20.2217 270.037C20.5297 268.814 21.101 267.792 21.7347 267.234C21.4402 266.802 21.3777 266.337 21.5473 265.842C21.7169 265.347 21.9177 265.083 21.8552 264.619C22.2569 264.092 22.7657 262.606 23.2121 260.656C23.6584 258.706 24.1984 257.451 24.5689 256.693C24.7206 254.309 25.2428 251.167 26.073 246.802C26.9344 242.67 27.2245 239.559 27.4388 237.64C27.4388 237.64 27.4388 237.64 27.6709 237.608C27.9029 237.577 28.135 237.546 28.0725 237.082C27.9476 236.153 28.1931 234.466 28.6394 232.516C29.0857 230.566 29.3312 228.878 29.4071 227.687C29.5767 227.191 29.8846 225.969 30.0677 223.817C30.2819 221.898 30.7595 220.18 31.5628 219.127C31.2504 216.806 31.9735 213.4 33.2053 208.509C33.0179 207.116 33.2634 205.429 33.9105 203.216C34.5577 201.002 34.8032 199.315 34.8791 198.123C34.8478 197.891 35.0487 197.628 35.5128 197.565C35.2941 195.941 35.9101 193.495 36.8652 190.058C37.8203 186.622 38.1729 183.975 38.3559 181.824C38.9272 180.802 39.4048 179.084 39.9582 176.174C40.5429 173.496 40.9892 171.545 41.5605 170.523C41.4043 169.363 41.8819 167.645 42.5603 165.663C42.7433 163.512 43.2209 161.793 44.0242 160.74C44.2385 158.821 44.7607 155.679 45.8542 151.515C46.7468 147.614 47.4699 144.209 47.6216 141.825C47.6216 141.825 47.8225 141.562 48.0233 141.299C47.9921 141.067 48.1929 140.803 48.3938 140.54C48.3625 140.308 48.3 139.844 48.4696 139.348C48.6392 138.853 48.5768 138.389 48.5143 137.925C49.2239 136.175 49.9782 133.002 51.2726 128.574C52.5669 124.147 53.6916 120.215 55.1734 117.18C56.4231 114.176 58.1682 111.342 60.2078 108.941C60.672 108.879 61.1362 108.816 61.337 108.553C62.792 108.83 64.1086 109.834 64.8227 111.628C65.5368 113.422 65.9875 115.016 66.0054 116.904C66.0232 118.791 66.2107 120.184 66.8623 121.514C66.6614 121.777 66.7239 122.241 66.8489 123.17C66.6793 123.665 66.7105 123.897 66.9426 123.866C67.0051 124.33 67.2684 124.531 67.2684 124.531C67.7771 135.332 67.6923 141.723 67.5405 144.106C68.2278 149.212 68.1876 154.18 67.652 158.977L68.1206 162.459C67.7814 163.449 67.5047 164.904 67.7546 166.761C67.7724 168.649 67.7278 170.073 67.3574 170.831C67.4868 175.303 67.8348 181.4 68.1695 189.153C68.2721 196.936 68.5265 202.337 68.9639 205.586C69.1691 208.866 70.1198 214.173 71.6461 222.001C71.7086 222.465 71.9719 222.666 72.4985 223.068C73.0252 223.469 73.3197 223.902 73.5518 223.871L75.6406 223.59C76.9081 222.474 78.0507 220.43 79.0683 217.458C80.0859 214.485 81.0276 212.704 81.5989 211.682C81.5677 211.45 81.5364 211.218 81.706 210.723C81.6436 210.259 81.5811 209.795 81.5186 209.33C81.9828 209.268 82.322 208.277 82.5987 206.822L82.8308 206.791L83.0941 206.992Z"></path>
<path fill="#FDFCFB" d="M184.311 39.3074C184.374 39.7716 184.173 40.0349 184.173 40.0349C183.972 40.2982 183.771 40.5616 183.307 40.624L182.843 40.6865C182.441 41.2132 182.102 42.204 182.026 43.3956C181.749 44.8506 181.611 45.5781 181.441 46.0735C181.446 49.6172 181.669 54.7855 182.079 61.3463C182.521 68.1392 182.744 73.3075 182.718 76.6191C182.78 77.0833 182.874 77.7795 182.999 78.7078C183.124 79.6362 183.186 80.1003 183.217 80.3324C183.017 80.5957 183.048 80.8278 183.11 81.292C183.173 81.7562 182.972 82.0195 182.972 82.0195C184.462 110.646 185.993 134.305 187.765 152.733C188.082 158.598 188.742 167.015 189.546 178.249C190.349 189.483 190.978 197.668 191.665 202.774C192.013 208.87 192.299 214.503 192.29 219.702C192.714 224.607 192.473 229.838 191.304 235.194C189.759 237.765 188.755 239.081 188.554 239.345C184.377 239.907 181.931 239.291 181.154 237.033L180.458 237.126C180.226 237.158 179.311 235.627 177.544 233.029C175.776 230.432 174.505 228.004 174.023 226.178C172.38 224.509 170.037 219.39 166.931 210.356C166.435 210.187 165.909 209.785 165.784 208.857C165.659 207.928 165.364 207.496 165.07 207.063C165.208 206.335 165.052 205.175 164.369 203.613C163.717 202.283 163.329 201.153 163.436 200.194C162.878 199.56 162.459 198.199 161.914 195.909C161.401 193.852 160.981 192.49 160.424 191.857C160.531 190.897 160.406 189.969 159.986 188.608C159.335 187.278 159.21 186.349 159.379 185.854C158.263 184.586 157.781 182.761 157.902 180.145C156.443 176.325 155.804 173.339 156.019 171.42C155.01 169.193 154.465 166.903 154.648 164.752L153.859 164.15C153.796 163.685 153.966 163.19 153.903 162.726C153.841 162.262 153.979 161.534 154.149 161.039L153.359 160.436C152.426 157.018 152.082 154.465 152.096 152.809C151.475 151.711 151.056 150.35 151.27 148.431C149.842 144.842 149.11 141.16 149.601 137.786C149.074 137.384 148.811 137.183 148.78 136.951C148.391 135.822 147.909 133.997 147.566 131.444C147.253 129.123 146.709 126.833 146.227 125.008C146.133 124.312 146.535 123.785 146.936 123.258C146.905 123.026 146.673 123.058 146.441 123.089C145.977 123.151 145.977 123.151 145.946 122.919C141.478 102.018 138.336 89.2093 136.52 84.4918C135.092 80.9034 133.092 78.3371 130.754 76.7616C130.521 76.7928 130.321 77.0561 130.12 77.3195C129.687 77.614 129.455 77.6453 129.191 77.4444C126.38 81.131 124.483 86.3483 123.438 92.6324C122.39 95.3727 121.836 98.2827 121.314 101.425C120.823 104.799 120.131 108.436 119.734 112.507C119.368 116.809 118.846 119.951 118.631 121.87C116.56 148.613 115.592 165.993 115.726 174.008L115.556 174.504C115.355 174.767 115.386 174.999 115.386 174.999C115.19 178.806 115.15 183.774 115.297 190.134C115.444 196.494 115.574 200.966 115.685 203.55L115.966 205.639C115.734 205.67 115.766 205.902 115.797 206.134L115.658 206.861C115.783 207.79 116.002 209.414 116.02 211.302C116.069 213.422 116.256 214.815 116.35 215.511C115.841 216.997 115.953 219.581 116.917 223.232C117.881 226.883 118.225 229.436 118.381 230.596C116.756 230.815 116.073 229.253 116.163 226.405C115.573 225.54 114.984 224.674 114.828 223.513C114.672 222.353 114.485 220.96 114.297 219.568C114.11 218.175 113.721 217.046 113.596 216.118C113.704 215.158 113.717 213.503 113.405 211.182C113.123 209.093 113.168 207.669 113.507 206.678C113.507 206.678 113.213 206.246 113.15 205.781C113.088 205.317 113.056 205.085 113.025 204.853C113.177 202.47 113.173 198.926 113.043 194.454C112.945 190.214 112.802 187.398 112.878 186.206C112.878 186.206 113.11 186.175 113.048 185.711C113.016 185.479 113.248 185.447 113.713 185.385C113.481 185.416 113.217 185.215 113.186 184.983C112.923 184.782 112.891 184.55 112.86 184.318C112.74 174.647 113.039 166.336 113.789 159.619C113.74 157.499 113.69 155.379 113.842 152.996C113.994 150.613 114.115 147.997 114.436 145.119C114.525 142.271 114.708 140.12 114.922 138.201C115.369 136.25 115.413 134.827 115.025 133.698C115.253 130.123 116.431 119.567 118.359 102.295C118.297 101.831 118.636 100.84 118.944 99.6172C119.252 98.3943 119.56 97.1714 119.899 96.1806C120.006 95.221 120.145 94.4935 120.02 93.5652C120.359 92.5744 121.006 90.3606 121.792 87.4195C122.577 84.4783 123.394 81.7692 124.304 79.7563C125.215 77.7434 126.42 76.1635 128.12 74.7532C128.584 74.6907 129.049 74.6282 129.482 74.3336C129.914 74.0391 130.347 73.7445 130.812 73.682C131.276 73.6196 131.539 73.8204 132.034 73.99C132.298 74.1908 132.561 74.3917 133.088 74.7934C133.614 75.1951 133.878 75.3959 134.342 75.3334C136.962 78.9977 139.756 85.7102 142.956 95.4398C143.143 96.8323 143.563 98.1936 143.812 100.05C144.062 101.907 144.281 103.531 144.701 104.893C144.888 106.285 145.276 107.414 145.897 108.512C146.615 113.85 147.021 116.867 147.61 117.733C147.892 119.822 148.298 122.839 149.324 126.954C150.351 131.069 150.788 134.318 151.069 136.407C151.908 139.129 152.734 143.508 153.778 149.511C154.591 155.545 155.322 159.227 155.804 161.052C161.124 183.02 164.655 196.958 166.364 202.635C166.489 203.564 167.529 206.023 168.988 209.843C170.479 213.896 171.519 216.355 172.17 217.685C172.822 219.015 173.799 221.01 175.103 223.67C176.437 226.562 177.709 228.99 178.887 230.722C180.097 232.685 181.77 234.587 183.413 236.256C183.939 236.658 184.435 236.827 184.729 237.26C185.162 236.966 185.627 236.903 185.689 237.367C185.689 237.367 185.921 237.336 186.354 237.042C186.586 237.01 186.787 236.747 187.019 236.716C187.251 236.684 187.483 236.653 187.715 236.622C188.117 236.095 188.487 235.337 188.764 233.882C189.041 232.427 189.411 231.668 190.045 231.11C189.487 230.476 189.532 229.053 189.746 227.133C189.96 225.214 189.773 223.822 189.679 223.126C189.849 222.63 189.987 221.903 190.032 220.479C189.876 219.319 189.983 218.359 190.152 217.864C189.826 217.199 189.902 216.007 190.179 214.552C189.398 208.75 189.099 204.773 189.282 202.622C189.514 202.591 189.483 202.359 189.22 202.158C188.724 201.988 188.693 201.756 188.894 201.493L189.309 199.31C188.595 197.516 188.189 194.499 188.09 190.259C187.791 186.282 187.617 183.234 187.368 181.377C187.211 180.217 186.93 178.128 187.019 175.281C186.877 172.465 186.796 170.113 186.609 168.72C185.953 163.846 185.654 159.87 185.913 156.527C185.105 154.036 184.712 149.364 184.935 142.245C183.364 135.84 182.735 127.655 183.11 118.153L182.133 116.158C182.133 116.158 182.101 115.926 182.503 115.399C182.673 114.904 182.874 114.64 183.074 114.377C181.646 110.789 181.423 105.62 181.941 98.9347C181.941 98.9347 181.678 98.7339 181.615 98.2697C181.352 98.0689 181.321 97.8368 181.49 97.3414C181.548 94.2618 181.294 88.8614 180.959 81.109C180.392 73.3878 180.308 67.492 180.674 63.1896C180.611 62.7254 180.285 62.0604 180.192 61.3641C180.16 61.1321 180.129 60.9 180.299 60.4046C180.267 60.1725 180.468 59.9092 180.437 59.6771C180 56.4279 179.75 54.5713 180.12 53.8125C179.754 45.828 179.995 40.5972 181.138 38.5531C182.236 37.9328 183.227 38.272 184.311 39.3074Z"></path>
<path fill="#FDFCFB" d="M356.576 35.2584C356.7 36.1868 356.33 36.9455 355.928 37.4722C344.574 40.8908 334.876 44.3229 327.065 47.7371C326.601 47.7996 326.106 47.63 325.642 47.6925L323.847 48.4066C324.017 47.9112 324.682 47.5854 326.012 46.9338C327.11 46.3134 327.744 45.7555 328.145 45.2289C328.177 45.461 328.409 45.4297 328.842 45.1352C329.074 45.1039 329.306 45.0727 329.337 45.3048C329.739 44.7781 330.605 44.189 331.935 43.5374C333.265 42.8858 334.394 42.4975 334.827 42.2029L332.97 42.4528C330.216 43.0598 326.565 44.0238 321.986 45.1128C317.438 46.4338 314.685 47.0408 314.22 47.1033C299.648 51.1914 290.552 53.8335 286.732 55.2929C286.5 55.3242 286.005 55.1546 285.54 55.2171C282.818 56.0561 279.662 57.1897 275.61 58.6804C271.557 60.171 267.706 61.3984 264.55 62.532C261.163 63.6968 258.007 64.8304 255.084 65.9328C254.794 69.0436 254.446 75.2339 253.807 84.5351C253.2 94.0683 252.977 101.187 252.736 106.418C251.268 120.084 250.728 133.625 250.62 146.871C250.683 147.336 250.544 148.063 250.375 148.559C250.718 151.111 250.705 152.767 250.335 153.526C250.433 157.766 250.607 160.814 250.393 162.733C250.83 165.983 250.647 168.134 250.076 169.156C250.388 171.477 250.625 174.989 250.522 179.492C250.187 184.027 250.392 187.307 250.642 189.164C250.366 190.619 250.352 192.275 250.602 194.131C250.665 194.596 250.495 195.091 250.325 195.586C250.406 197.938 250.598 202.875 250.901 210.395C250.972 217.947 251.49 223.548 252.052 227.725C251.901 230.109 251.936 233.884 252.592 238.758C253.016 243.663 253.222 246.944 253.409 248.336C253.177 248.367 252.976 248.631 252.807 249.126C252.405 249.653 252.173 249.684 251.941 249.715C250.539 242.815 250.022 237.214 249.924 232.974C249.205 227.636 248.87 219.884 248.455 209.779C248.072 199.907 248.018 194.243 247.893 193.315L247.831 192.851C247.831 192.851 247.831 192.851 248.295 192.788C247.826 189.307 247.866 184.339 247.92 177.716C248.005 171.325 248.076 166.59 247.902 163.541C247.991 160.694 248.063 155.958 248.054 148.871C248.045 141.783 248.255 136.321 248.683 132.482C248.309 129.697 248.505 125.89 249.304 121.293C249.407 116.79 250 108.913 250.884 97.9244C251.768 86.9362 252.036 78.3938 252.12 72.0026C251.888 72.0339 251.857 71.8018 252.058 71.5385L252.491 71.2439C252.196 70.811 252.103 70.1147 252.21 69.1552C252.348 68.4277 252.486 67.7002 252.393 67.0039C245.85 69.3024 234.42 73.9127 217.933 81.3303C216.634 82.214 215.737 82.5711 215.273 82.6336C198.045 91.5686 185.133 99.2138 176.011 105.168C169.209 110.809 165.375 113.924 164.54 114.745C163.706 115.567 162.469 116.914 160.863 119.021C159.256 121.128 157.819 122.739 156.752 123.591C156.025 123.453 155.529 123.283 155.529 123.283C155.172 122.386 155.047 121.458 155.123 120.266C156.654 119.351 158.555 117.678 160.827 115.245C162.867 112.844 164.335 111.465 164.969 110.907C165.433 110.845 165.928 111.014 165.928 111.014C166.268 110.023 167.071 108.97 168.307 107.622L168.571 107.823C168.602 108.055 168.834 108.024 169.035 107.761C169.035 107.761 169.869 106.939 171.137 105.824C172.404 104.708 173.471 103.855 174.337 103.266L174.431 103.963C174.939 102.476 176.903 101.267 180.26 99.8699C181.929 98.2275 184.758 96.4289 188.949 94.2107L189.382 93.9161C189.15 93.9474 189.119 93.7153 189.32 93.452C189.351 93.6841 189.583 93.6528 190.016 93.3583C190.48 93.2958 190.712 93.2645 190.976 93.4654C190.913 93.0012 191.315 92.4746 192.212 92.1175C192.908 92.0238 193.31 91.4972 193.479 91.0018C193.774 91.4347 194.269 91.6043 194.671 91.0776C195.073 90.551 195.738 90.2252 196.202 90.1627C196.604 89.6361 197.469 89.0469 198.799 88.3953C200.161 87.9758 201.027 87.3867 201.428 86.86C201.955 87.2617 202.419 87.1992 203.285 86.6101C204.151 86.021 204.584 85.7264 205.048 85.6639C205.048 85.6639 205.249 85.4006 205.217 85.1685C205.217 85.1685 205.186 84.9365 205.387 84.6731C206.378 85.0123 207.507 84.6241 208.806 83.7404C210.105 82.8567 211.002 82.4996 211.698 82.4059C211.698 82.4059 211.93 82.3747 211.899 82.1426L211.836 81.6784C212.765 81.5535 214.327 80.8706 216.29 79.6611C218.254 78.4516 219.816 77.7688 221.178 77.3493L221.084 76.653C221.316 76.6218 221.981 76.296 222.909 76.171C223.838 76.046 224.503 75.7202 224.904 75.1936C225.895 75.5328 227.256 75.1133 228.988 73.935C230.72 72.7568 232.05 72.1052 232.978 71.9802C232.978 71.9802 233.179 71.7169 233.643 71.6544C233.643 71.6544 233.875 71.6232 234.045 71.1278C234.045 71.1278 234.308 71.3286 234.54 71.2973C234.571 71.5294 234.804 71.4982 235.036 71.4669C235.036 71.4669 235.701 71.1411 236.799 70.5208C237.696 70.1637 238.329 69.6059 238.731 69.0792C239.459 69.2176 240.387 69.0926 241.717 68.441C243.047 67.7894 243.944 67.4323 244.408 67.3699L244.841 67.0753C245.305 67.0128 245.305 67.0128 245.243 66.5487C245.243 66.5487 245.707 66.4862 246.234 66.8879C246.234 66.8879 246.466 66.8566 246.403 66.3925C246.372 66.1604 246.573 65.897 247.037 65.8346C249.188 66.0176 250.982 65.3035 252.683 63.8931C253.156 58.6311 253.509 55.9845 253.477 55.7524C254.7 56.0604 255.691 56.3996 256.249 57.0334C255.695 59.9433 255.28 62.1258 255.236 63.5495C256.102 62.9604 257.432 62.3088 259.69 61.5322C261.747 61.019 263.077 60.3673 263.912 59.5461C264.608 59.4524 265.537 59.3275 266.898 58.9079C268.058 58.7517 268.955 58.3947 269.652 58.301C274.137 56.5158 277.324 55.6142 278.948 55.3955C278.948 55.3955 279.149 55.1322 279.087 54.668C279.319 54.6368 279.551 54.6056 279.814 54.8064C279.845 55.0385 280.078 55.0073 280.31 54.976C290.673 51.2181 298.64 48.9643 304.147 47.7504C304.317 47.255 305.013 47.1612 305.941 47.0363C306.87 46.9113 307.334 46.8488 307.736 46.3222C307.736 46.3222 307.999 46.523 308.03 46.7551C308.432 46.2285 309.329 45.8714 310.257 45.7465C311.186 45.6215 311.882 45.5278 312.283 45.0011C313.212 44.8762 313.707 45.0458 313.738 45.2779C314.604 44.6887 315.934 44.0371 318.255 43.7247C320.344 43.4436 321.906 42.7607 322.772 42.1716C322.772 42.1716 323.035 42.3724 323.267 42.3412C323.531 42.542 323.763 42.5108 323.995 42.4796C325.789 41.7655 328.511 40.9264 331.729 40.257C334.947 39.5875 337.469 39.0118 338.799 38.3602C339.031 38.329 339.495 38.2665 340.223 38.4048C340.223 38.4048 340.455 38.3736 340.656 38.1103L340.624 37.8782C341.986 37.4587 344.507 36.8829 347.756 36.4456C351.006 36.0082 353.496 35.2004 355.29 34.4863C355.522 34.4551 355.786 34.6559 355.817 34.888C356.111 35.3209 356.343 35.2897 356.576 35.2584ZM255.294 72.7569C255.262 72.5248 255.262 72.5248 255.526 72.7257C255.789 72.9265 255.82 73.1586 255.82 73.1586C255.588 73.1898 255.588 73.1898 255.557 72.9578L255.294 72.7569Z"></path>
<path fill="#FDFCFB" d="M361.475 169.519C361.056 168.158 361.332 166.703 362.243 164.69C363.185 162.909 363.662 161.191 363.475 159.799L363.908 159.504C363.908 159.504 364.14 159.473 364.108 159.241C364.077 159.009 364.278 158.745 364.216 158.281C364.153 157.817 364.122 157.585 364.291 157.089C367.407 148.636 369.241 142.955 369.857 140.509C369.857 140.509 370.058 140.246 370.46 139.719C370.629 139.224 370.83 138.96 371.294 138.898C371 138.465 371.138 137.737 371.477 136.747C371.816 135.756 371.955 135.028 371.892 134.564C371.892 134.564 372.124 134.533 372.526 134.006C372.727 133.743 372.928 133.48 373.392 133.417C373.499 132.457 373.807 131.235 374.548 129.717C375.088 128.463 375.396 127.24 375.735 126.249C376.369 125.691 377.172 124.638 377.851 122.657C378.529 120.675 379.301 119.39 379.935 118.832C379.997 119.296 379.859 120.023 379.457 120.55C379.056 121.077 379.149 121.773 379.212 122.237C378.748 122.299 378.578 122.795 378.409 123.29C378.27 124.018 378.069 124.281 377.806 124.08C378.163 124.977 377.855 126.2 376.588 127.316C376.311 128.771 375.833 130.489 374.923 132.502C374.012 134.515 373.535 136.233 373.459 137.425C373.289 137.92 373.057 137.952 372.763 137.519C372.486 138.974 370.344 145.878 366.568 158.201C365.92 160.414 364.965 163.851 363.702 168.511C362.47 173.402 361.283 176.87 360.667 179.316C360.297 180.074 359.185 182.351 357.829 186.314C355.619 189.21 353.392 190.219 351.116 189.108L350.326 188.505C349.831 188.336 349.567 188.135 349.304 187.934C347.925 186.466 346.854 183.774 346.323 179.829C345.56 175.915 345.015 173.625 344.921 172.929C344.859 172.465 344.497 168.024 344.239 159.08C343.748 150.167 343.507 143.111 343.748 137.88C343.462 132.248 343.69 128.673 344.199 127.186C343.547 125.856 343.529 123.968 344.083 121.059C343.842 114.002 343.944 109.499 344.221 108.044L343.694 107.642L344.203 106.156C343.891 103.835 343.855 100.06 343.57 94.4271C343.315 89.0267 343.016 85.05 342.905 82.4659C342.579 81.8009 342.222 80.9038 342.034 79.5113C341.847 78.1188 341.459 76.9896 341.334 76.0613C340.977 75.1642 340.419 74.5305 339.861 73.8967C339.026 74.7179 338.424 75.5079 337.852 76.5299C337.281 77.552 336.71 78.574 336.17 79.8281C335.429 81.3456 335.059 82.1043 334.657 82.631C334.518 83.3585 334.179 84.3493 333.871 85.5722C333.595 87.0271 333.255 88.018 333.318 88.4821C331.836 91.517 330.604 96.4086 329.096 102.755C327.618 109.334 326.556 113.73 325.909 115.944C325.079 120.309 323.771 126.392 321.986 134.193C319.968 142.026 318.598 147.645 318.138 151.251C316.09 158.852 313.751 169.564 311.385 183.587C309.02 197.61 307.422 206.804 306.561 210.937C306.378 213.088 306.025 215.734 305.302 219.14C304.347 222.576 303.932 224.759 303.887 226.183C303.209 228.164 302.16 230.905 300.803 234.868C298.826 237.733 296.724 239.67 294.265 240.71C293.336 240.835 292.546 240.232 291.493 239.429C290.935 238.795 289.694 236.599 288.204 232.547L287.173 224.888C287.11 224.424 287.048 223.96 286.923 223.031C286.566 222.134 286.735 221.639 287.168 221.344C287.168 221.344 286.905 221.144 286.874 220.912L286.642 220.943C286.374 217.198 286.03 214.645 285.548 212.82C285.548 212.82 285.749 212.557 285.919 212.061C285.887 211.829 286.088 211.566 286.289 211.302C285.223 199.868 284.87 190.228 285.263 182.613C284.87 177.941 284.866 174.397 285.218 171.75C284.888 167.542 284.772 161.414 284.808 152.902C284.643 144.655 284.464 138.063 284.304 133.358C284.393 130.511 284.295 126.271 283.947 120.174C283.599 114.078 283.268 109.869 283.42 107.486C282.92 103.772 282.353 96.0512 281.456 84.1213C280.591 72.4235 279.805 63.0777 279.163 56.5481C279.163 56.5481 278.899 56.3473 278.837 55.8831C278.542 55.4502 278.48 54.986 278.417 54.5219C278.292 53.5936 278.462 53.0982 279.39 52.9732C280.086 52.8795 280.551 52.817 281.077 53.2187C281.14 53.6828 281.202 54.147 281.666 54.0845C283.518 74.8648 284.996 92.8601 285.634 108.133C286.74 126.887 287.365 143.816 287.57 159.383C287.463 160.343 287.419 161.766 287.236 163.917C287.084 166.301 287.071 167.957 287.195 168.885C287.227 169.117 287.258 169.349 287.521 169.55C287.584 170.014 287.615 170.246 287.615 170.246C287.722 193.861 288.222 209.861 289.146 218.479C289.177 218.711 288.976 218.975 288.976 218.975C288.775 219.238 288.806 219.47 289.07 219.671C289.195 220.599 289.476 222.688 289.851 225.473C290.226 228.258 290.569 230.811 291.314 232.837C291.828 234.895 292.743 236.425 293.858 237.693C295.019 237.537 295.885 236.948 296.688 235.894C297.523 235.073 298.094 234.051 298.603 232.565C298.911 231.342 299.482 230.32 300.116 229.762C299.821 229.329 299.759 228.865 299.928 228.369C300.098 227.874 300.299 227.611 300.236 227.147C300.638 226.62 301.147 225.134 301.593 223.183C302.039 221.233 302.58 219.979 302.95 219.22C303.102 216.837 303.624 213.695 304.454 209.33C305.315 205.197 305.606 202.086 305.82 200.167C305.82 200.167 305.82 200.167 306.052 200.136C306.284 200.105 306.516 200.073 306.454 199.609C306.329 198.681 306.574 196.994 307.02 195.043C307.467 193.093 307.712 191.406 307.788 190.214C307.958 189.719 308.266 188.496 308.449 186.345C308.663 184.426 309.141 182.707 309.944 181.654C309.632 179.333 310.355 175.928 311.586 171.036C311.399 169.644 311.644 167.957 312.292 165.743C312.939 163.529 313.184 161.842 313.26 160.651C313.229 160.419 313.43 160.155 313.894 160.093C313.675 158.468 314.291 156.022 315.246 152.586C316.201 149.149 316.554 146.503 316.737 144.351C317.308 143.329 317.786 141.611 318.339 138.701C318.924 136.023 319.37 134.073 319.942 133.051C319.785 131.89 320.263 130.172 320.941 128.19C321.124 126.039 321.602 124.321 322.405 123.268C322.62 121.348 323.142 118.206 324.235 114.042C325.128 110.142 325.851 106.736 326.003 104.353C326.003 104.353 326.204 104.09 326.404 103.826C326.373 103.594 326.574 103.331 326.775 103.068C326.744 102.835 326.681 102.371 326.851 101.876C327.02 101.38 326.958 100.916 326.895 100.452C327.605 98.7026 328.359 95.5294 329.654 91.102C330.948 86.6745 332.073 82.7425 333.554 79.7076C334.804 76.7039 336.549 73.8699 338.589 71.4687C339.053 71.4063 339.517 71.3438 339.718 71.0805C341.173 71.3572 342.49 72.3614 343.204 74.1556C343.918 75.9498 344.369 77.5431 344.386 79.431C344.404 81.3189 344.592 82.7114 345.243 84.0414C345.043 84.3047 345.105 84.7689 345.23 85.6972C345.06 86.1926 345.092 86.4247 345.324 86.3935C345.386 86.8576 345.649 87.0585 345.649 87.0585C346.158 97.8592 346.073 104.25 345.922 106.634C346.609 111.74 346.569 116.707 346.033 121.505L346.502 124.986C346.162 125.977 345.886 127.432 346.136 129.289C346.154 131.176 346.109 132.6 345.738 133.359C345.868 137.831 346.216 143.928 346.551 151.68C346.653 159.464 346.908 164.864 347.345 168.113C347.55 171.394 348.501 176.7 350.027 184.529C350.09 184.993 350.353 185.194 350.88 185.595C351.406 185.997 351.701 186.43 351.933 186.399L354.022 186.117C355.289 185.002 356.432 182.958 357.449 179.985C358.467 177.013 359.409 175.232 359.98 174.21C359.949 173.978 359.917 173.746 360.087 173.25C360.025 172.786 359.962 172.322 359.9 171.858C360.364 171.795 360.703 170.805 360.98 169.35L361.212 169.318L361.475 169.519Z"></path>
<path fill="#FDFCFB" d="M462.692 1.83489C462.755 2.29907 462.554 2.56239 462.554 2.56239C462.353 2.82571 462.152 3.08903 461.688 3.15151L461.224 3.21399C460.822 3.74064 460.483 4.73145 460.407 5.92311C460.13 7.37808 459.992 8.10557 459.822 8.60097C459.827 12.1447 460.05 17.313 460.461 23.8738C460.902 30.6666 461.125 35.8349 461.099 39.1466C461.161 39.6107 461.255 40.307 461.38 41.2353C461.505 42.1636 461.567 42.6278 461.599 42.8599C461.398 43.1232 461.429 43.3553 461.491 43.8195C461.554 44.2836 461.353 44.5469 461.353 44.5469C462.844 73.1734 464.374 96.8324 466.146 115.261C466.463 121.125 467.123 129.543 467.927 140.776C468.73 152.01 469.359 160.195 470.046 165.301C470.395 171.398 470.68 177.03 470.671 182.23C471.095 187.135 470.854 192.366 469.685 197.721C468.14 200.292 467.136 201.609 466.935 201.872C462.758 202.434 460.312 201.818 459.536 199.56L458.839 199.654C458.607 199.685 457.692 198.154 455.925 195.557C454.158 192.959 452.886 190.531 452.404 188.706C450.761 187.036 448.418 181.917 445.312 172.884C444.816 172.714 444.29 172.313 444.165 171.384C444.04 170.456 443.745 170.023 443.451 169.59C443.589 168.863 443.433 167.702 442.75 166.14C442.098 164.81 441.71 163.681 441.817 162.721C441.259 162.088 440.84 160.726 440.295 158.437C439.782 156.379 439.363 155.018 438.805 154.384C438.912 153.425 438.787 152.496 438.367 151.135C437.716 149.805 437.591 148.877 437.76 148.381C436.645 147.114 436.163 145.288 436.283 142.673C434.824 138.853 434.185 135.867 434.4 133.948C433.391 131.72 432.847 129.431 433.03 127.28L432.24 126.677C432.177 126.213 432.347 125.718 432.284 125.253C432.222 124.789 432.36 124.062 432.53 123.566L431.74 122.964C430.807 119.545 430.463 116.992 430.477 115.336C429.856 114.238 429.437 112.877 429.651 110.958C428.223 107.37 427.491 103.688 427.982 100.313C427.455 99.9117 427.192 99.7109 427.161 99.4788C426.772 98.3496 426.29 96.5242 425.947 93.9713C425.634 91.6505 425.09 89.3609 424.608 87.5355C424.514 86.8392 424.916 86.3126 425.318 85.7859C425.286 85.5539 425.054 85.5851 424.822 85.6163C424.358 85.6788 424.358 85.6788 424.327 85.4467C419.859 64.5459 416.717 51.7367 414.901 47.0192C413.473 43.4309 411.473 40.8646 409.135 39.2891C408.902 39.3203 408.702 39.5836 408.501 39.8469C408.068 40.1415 407.836 40.1727 407.572 39.9719C404.761 43.6584 402.864 48.8758 401.819 55.1599C400.771 57.9002 400.217 60.8102 399.695 63.9522C399.204 67.3263 398.512 70.9638 398.115 75.0341C397.749 79.3366 397.227 82.4786 397.012 84.3977C394.941 111.141 393.973 128.52 394.107 136.536L393.937 137.031C393.736 137.295 393.767 137.527 393.767 137.527C393.571 141.334 393.531 146.301 393.678 152.661C393.825 159.021 393.955 163.493 394.066 166.077L394.347 168.166C394.115 168.197 394.147 168.429 394.178 168.661L394.039 169.389C394.164 170.317 394.383 171.942 394.401 173.83C394.45 175.95 394.637 177.342 394.731 178.038C394.222 179.525 394.334 182.109 395.298 185.76C396.262 189.41 396.606 191.963 396.762 193.124C395.137 193.342 394.454 191.78 394.544 188.933C393.955 188.067 393.365 187.201 393.209 186.041C393.053 184.88 392.866 183.488 392.678 182.095C392.491 180.703 392.102 179.574 391.977 178.645C392.085 177.686 392.098 176.03 391.786 173.709C391.504 171.62 391.549 170.197 391.888 169.206C391.888 169.206 391.594 168.773 391.531 168.309C391.469 167.845 391.437 167.613 391.406 167.38C391.558 164.997 391.554 161.453 391.424 156.981C391.326 152.741 391.183 149.925 391.259 148.734C391.259 148.734 391.491 148.702 391.429 148.238C391.397 148.006 391.63 147.975 392.094 147.912C391.862 147.944 391.598 147.743 391.567 147.511C391.304 147.31 391.272 147.078 391.241 146.846C391.121 137.174 391.42 128.864 392.17 122.147C392.121 120.027 392.072 117.907 392.223 115.523C392.375 113.14 392.496 110.525 392.817 107.646C392.906 104.799 393.089 102.647 393.303 100.728C393.75 98.7779 393.794 97.3541 393.406 96.225C393.634 92.65 394.812 82.0947 396.74 64.8225C396.678 64.3583 397.017 63.3675 397.325 62.1446C397.633 60.9217 397.941 59.6988 398.28 58.708C398.387 57.7485 398.526 57.021 398.401 56.0926C398.74 55.1018 399.387 52.8881 400.173 49.9469C400.958 47.0057 401.775 44.2966 402.685 42.2838C403.596 40.2709 404.801 38.691 406.501 37.2806C406.966 37.2182 407.43 37.1557 407.863 36.8611C408.296 36.5665 408.728 36.272 409.193 36.2095C409.657 36.147 409.92 36.3479 410.416 36.5175C410.679 36.7183 410.942 36.9192 411.469 37.3208C411.995 37.7225 412.259 37.9234 412.723 37.8609C415.343 41.5251 418.137 48.2377 421.337 57.9673C421.524 59.3598 421.944 60.721 422.194 62.5777C422.443 64.4344 422.662 66.0589 423.082 67.4202C423.269 68.8127 423.657 69.9419 424.278 71.0398C424.996 76.3777 425.402 79.3948 425.992 80.2606C426.273 82.3493 426.679 85.3664 427.705 89.4814C428.732 93.5964 429.169 96.8456 429.45 98.9343C430.289 101.657 431.115 106.035 432.159 112.038C432.972 118.072 433.704 121.754 434.186 123.58C439.505 145.547 443.036 159.486 444.745 165.163C444.87 166.091 445.91 168.55 447.369 172.371C448.86 176.423 449.9 178.882 450.551 180.212C451.203 181.542 452.18 183.537 453.484 186.197C454.818 189.09 456.09 191.517 457.268 193.249C458.478 195.213 460.152 197.114 461.794 198.783C462.321 199.185 462.816 199.355 463.111 199.788C463.543 199.493 464.008 199.431 464.07 199.895C464.07 199.895 464.302 199.864 464.735 199.569C464.967 199.538 465.168 199.274 465.4 199.243C465.632 199.212 465.864 199.181 466.096 199.149C466.498 198.623 466.868 197.864 467.145 196.409C467.422 194.954 467.792 194.195 468.426 193.638C467.868 193.004 467.913 191.58 468.127 189.661C468.341 187.742 468.154 186.349 468.06 185.653C468.23 185.158 468.368 184.43 468.413 183.006C468.257 181.846 468.364 180.886 468.533 180.391C468.208 179.726 468.283 178.534 468.56 177.079C467.779 171.277 467.48 167.301 467.663 165.149C467.895 165.118 467.864 164.886 467.601 164.685C467.105 164.516 467.074 164.284 467.275 164.02L467.69 161.838C466.976 160.044 466.57 157.027 466.472 152.787C466.173 148.81 465.999 145.762 465.749 143.905C465.592 142.745 465.311 140.656 465.401 137.808C465.258 134.992 465.177 132.64 464.99 131.248C464.334 126.374 464.035 122.397 464.294 119.054C463.486 116.564 463.093 111.891 463.316 104.772C461.745 98.3677 461.116 90.1824 461.491 80.6804L460.514 78.6853C460.514 78.6853 460.483 78.4533 460.884 77.9266C461.054 77.4312 461.255 77.1679 461.456 76.9046C460.027 73.3162 459.804 68.1479 460.322 61.4622C460.322 61.4622 460.059 61.2613 459.996 60.7972C459.733 60.5963 459.702 60.3642 459.871 59.8688C459.929 56.7893 459.675 51.3889 459.34 43.6365C458.773 35.9153 458.689 30.0195 459.055 25.717C458.992 25.2529 458.666 24.5879 458.573 23.8916C458.541 23.6595 458.51 23.4275 458.68 22.932C458.649 22.7 458.849 22.4366 458.818 22.2046C458.381 18.9554 458.131 17.0987 458.501 16.34C458.135 8.35549 458.376 3.12471 459.519 1.08061C460.617 0.460248 461.608 0.799445 462.692 1.83489Z"></path>
<path fill="#FDFCFB" d="M555.151 33.3386C553.295 33.5885 550.648 33.2359 546.779 32.5754C546.314 32.6378 546.082 32.6691 545.881 32.9324C545.681 33.1957 545.448 33.227 545.448 33.227C544.52 33.3519 543.128 33.5394 541.333 34.2535C539.539 34.9675 538.147 35.155 537.651 34.9854C537.25 35.512 536.353 35.8691 534.991 36.2886C533.429 36.9714 532.532 37.3285 532.331 37.5918C530.475 37.8417 528.681 38.5558 527.413 39.6716C525.588 40.1536 523.128 41.1935 520.468 42.4967C517.576 43.8312 515.581 44.8086 514.684 45.1656C512.783 46.8393 511.779 48.1559 511.377 48.6825C511.471 49.3788 511.814 51.9317 512.841 56.0467C512.564 57.5017 512.783 59.1262 513.033 60.9829C513.314 63.0716 513.564 64.9283 513.751 66.3208C513.876 67.2491 513.832 68.6729 513.649 70.8241C513.466 72.9753 513.452 74.6311 513.84 75.7603C513.582 79.1032 513.108 84.3652 512.622 91.283C512.135 98.2008 511.631 103.231 511.604 106.542C512.47 105.953 514.032 105.27 516.259 104.262C518.486 103.253 520.017 102.338 520.852 101.517C520.852 101.517 521.115 101.718 521.347 101.687L521.611 101.887C522.182 100.865 523.249 100.013 524.873 99.7943L536.75 93.2336L537.74 93.5728C539.579 91.4349 541.806 90.4263 544.158 90.346C544.158 90.346 544.39 90.3147 544.56 89.8193C544.529 89.5872 544.73 89.3239 545.163 89.0294C545.658 89.1989 546.323 88.8732 547.622 87.9895C550.143 87.4137 552.803 86.1105 555.401 84.3431C555.401 84.3431 555.664 84.544 555.896 84.5127C556.128 84.4815 556.361 84.4503 556.593 84.419L557.396 83.3657C558.123 83.5041 559.253 83.1158 560.551 82.2321C561.881 81.5805 562.979 80.9602 563.908 80.8352C563.908 80.8352 564.14 80.8039 564.109 80.5719C564.077 80.3398 564.278 80.0765 564.51 80.0452L565.439 79.9202C565.903 79.8578 566.398 80.0274 566.661 80.2282C567.063 79.7016 568.161 79.0812 569.723 78.3984C571.285 77.7155 572.383 77.0951 573.017 76.5373L573.807 77.1398C573.976 76.6444 574.409 76.3498 575.106 76.2561C575.57 76.1936 576.266 76.0999 576.793 76.5016C576.561 76.5328 576.36 76.7961 575.927 77.0907C575.494 77.3853 575.293 77.6486 575.061 77.6798C574.86 77.9432 574.628 77.9744 574.334 77.5415C573.004 78.1931 572.37 78.751 572.37 78.751C570.576 79.4651 567.251 81.0941 561.899 83.4684C556.548 85.8428 552.326 87.8288 549.202 89.1945C544.346 91.7385 541.222 93.1042 539.659 93.787C538.762 94.1441 537.897 94.7332 536.799 95.3535C535.5 96.2372 534.866 96.7951 534.402 96.8576C532.438 98.0671 530.211 99.0757 527.953 99.8523C526.453 100.999 523.592 102.566 519.633 104.753C515.442 106.971 512.582 108.537 510.85 109.716C510.479 110.474 510.435 111.898 510.283 114.281C510.131 116.665 509.622 118.151 509.283 119.142C509.301 121.03 509.118 123.181 508.565 126.091C508.011 129.001 507.797 130.92 507.953 132.08C507.382 133.102 506.936 135.053 506.815 137.668C506.695 140.284 506.217 142.002 505.646 143.024C505.664 144.912 505.248 147.094 504.695 150.004C504.142 152.914 503.726 155.097 503.945 156.721L503.481 156.784C503.053 160.622 502.468 163.3 501.789 165.281L502.008 166.906C501.33 168.888 501.285 170.311 501.58 170.744C500.437 172.788 499.946 176.163 499.812 180.434C499.477 184.968 499.187 188.079 498.911 189.534C498.803 190.494 499.241 193.743 499.991 199.313L500.781 199.915C501.075 200.348 501.338 200.549 501.338 200.549C503.967 199.014 508.033 195.867 513.799 191.31C519.334 186.785 523.864 183.576 527.39 181.684C527.591 181.42 527.791 181.157 527.729 180.693C536.481 175.498 547.291 169.79 560.189 163.8L561.35 163.644C561.35 163.644 561.783 163.349 562.216 163.055L563.282 162.202C566.469 161.301 569.856 160.136 573.182 158.507C573.708 158.909 574.605 158.552 575.935 157.9C577.265 157.248 578.426 157.092 578.952 157.494C578.952 157.494 579.184 157.463 579.354 156.967L579.524 156.472C579.524 156.472 579.787 156.673 579.849 157.137L579.912 157.601C579.68 157.632 579.479 157.896 579.015 157.958C578.582 158.253 578.149 158.547 578.149 158.547C577.917 158.578 577.685 158.61 577.39 158.177C577.221 158.672 576.556 158.998 575.627 159.123C575.163 159.185 574.498 159.511 573.864 160.069C572.999 160.658 572.566 160.953 572.333 160.984C571.901 161.279 571.436 161.341 570.972 161.403C570.508 161.466 570.075 161.761 569.611 161.823C569.147 161.885 568.946 162.149 569.008 162.613C568.513 162.443 568.482 162.211 568.683 161.948C568.25 162.243 568.049 162.506 568.08 162.738C568.111 162.97 567.879 163.001 567.879 163.001C565.527 163.082 563.965 163.764 562.729 165.112C562.528 165.376 562.296 165.407 562.265 165.175L562.001 164.974C561.167 165.795 558.043 167.161 552.66 169.303C552.428 169.334 552.227 169.598 551.995 169.629C551.098 169.986 550.665 170.28 550.665 170.28C550.433 170.312 550.232 170.575 550.263 170.807L550.094 171.303C549.661 171.597 549.197 171.66 548.732 171.722C548.268 171.785 547.835 172.079 547.603 172.11C547.139 172.173 546.938 172.436 547.001 172.9L545.546 172.624C540.984 175.6 538.324 176.904 537.396 177.029C537.195 177.292 537.258 177.756 537.32 178.22C535.526 178.934 532.897 180.47 529.867 182.532C526.836 184.594 524.64 185.834 523.511 186.223C522.94 187.245 521.873 188.097 520.311 188.78C518.548 189.726 517.482 190.579 517.111 191.337C516.848 191.136 516.616 191.168 516.415 191.431C516.214 191.694 515.982 191.726 515.75 191.757C515.549 192.02 515.348 192.283 515.179 192.779C514.777 193.305 514.576 193.569 514.576 193.569C512.844 194.747 510.711 196.452 508.346 198.188C506.011 200.156 504.311 201.567 503.445 202.156C501.588 202.406 500.133 202.129 499.049 201.094C497.964 200.058 497.344 198.96 497.188 197.8C497.063 196.871 496.813 195.015 496.469 192.462C496.442 183.487 497.13 176.305 498.732 170.655C499.129 166.585 499.973 160.564 501.495 152.562C502.816 144.823 503.86 138.538 504.195 134.004C504.195 134.004 504.396 133.741 504.566 133.245C504.735 132.75 504.936 132.486 505.137 132.223C504.842 131.79 504.918 130.599 505.628 128.849L507.556 111.577C504.896 112.88 501.201 115.268 496.206 118.539C491.212 121.811 487.95 123.904 486.387 124.587C484.486 126.26 482.554 127.702 480.389 129.175C478.256 130.88 475.89 132.616 473.293 134.383C470.726 136.383 468.562 137.855 467.263 138.739C467.031 138.77 466.767 138.569 466.767 138.569C466.535 138.601 466.567 138.833 466.567 138.833C466.335 138.864 466.102 138.895 466.071 138.663C466.04 138.431 465.777 138.23 465.545 138.262C465.482 137.797 465.388 137.101 465.759 136.342C468.017 135.566 469.548 134.651 470.351 133.598C470.351 133.598 470.583 133.566 470.816 133.535C470.847 133.767 471.079 133.736 471.311 133.705C471.543 133.673 471.744 133.41 471.913 132.915C471.882 132.683 472.083 132.419 472.315 132.388C474.31 131.411 477.14 129.612 480.773 126.76C484.437 124.14 487.468 122.078 489.663 120.838C490.467 119.784 491.565 119.164 492.756 119.24L492.926 118.744C492.895 118.512 493.096 118.249 493.296 117.986C493.761 117.923 495.059 117.04 496.992 115.598C498.956 114.388 500.719 113.442 502.049 112.791C502.281 112.759 502.45 112.264 502.388 111.8C503.084 111.706 504.182 111.086 505.713 110.171C507.043 109.519 507.909 108.93 508.141 108.899C508.815 103.374 509.806 91.4258 511.113 73.0556C511.082 72.8235 511.051 72.5915 511.02 72.3594C510.756 72.1585 510.725 71.9265 510.694 71.6944C510.873 65.9994 510.712 61.2953 510.15 57.1178C510.025 56.1895 509.636 55.0603 509.418 53.4357C508.967 51.8424 508.779 50.4499 508.592 49.0574C508.436 47.897 508.28 46.7366 508.619 45.7458C511.68 43.9159 516.336 41.6353 522.584 38.9039C528.864 36.4046 532.22 35.0077 533.086 34.4185C533.318 34.3873 533.581 34.5881 533.844 34.789C534.277 34.4944 538.129 33.2671 545.6 30.8437C550.862 31.3168 553.478 31.4373 553.71 31.4061C554.763 32.2094 555.089 32.8744 555.151 33.3386ZM586.134 72.1724L586.165 72.4045L585.996 72.8999C585.299 72.9936 585.268 72.7615 585.67 72.2349L586.134 72.1724ZM584.309 72.6544C584.541 72.6232 584.835 73.0561 584.898 73.5203C584.434 73.5827 584.371 73.1186 584.309 72.6544ZM583.612 72.7481C583.706 73.4444 583.536 73.9398 583.104 74.2344C582.608 74.0648 582.778 73.5693 583.612 72.7481ZM582.577 73.8327C582.376 74.096 582.175 74.3593 581.742 74.6539C581.309 74.9484 581.109 75.2118 581.14 75.4438C580.908 75.4751 580.877 75.243 580.814 74.7788C580.011 75.8321 579.346 76.1579 578.819 75.7562C578.756 75.2921 578.725 75.06 578.957 75.0288C579.189 74.9975 579.39 74.7342 579.854 74.6717C580.087 74.6405 580.319 74.6092 580.488 74.1138C580.551 74.578 581.015 74.5155 581.417 73.9889C581.818 73.4622 582.05 73.431 582.577 73.8327ZM578.029 75.1537C578.06 75.3858 578.091 75.6179 578.355 75.8187C578.386 76.0508 578.417 76.2829 578.417 76.2829C578.185 76.3141 577.953 76.3454 577.721 76.3766C577.257 76.4391 577.025 76.4703 576.994 76.2383C576.869 75.3099 577.069 75.0466 578.029 75.1537ZM493.109 116.593C493.109 116.593 493.078 116.361 493.542 116.299C493.573 116.531 493.341 116.562 493.109 116.593Z"></path>
<path fill="#FDFCFB" d="M613.145 169.431C613.163 171.319 613.274 173.903 613.712 177.153C613.948 180.665 614.06 183.249 614.278 184.874C614.372 185.57 614.435 186.034 614.729 186.467C614.792 186.931 615.055 187.132 615.349 187.565L616.202 188.632C614.809 188.819 613.988 187.985 613.337 186.655C612.685 185.325 612.466 183.7 612.216 181.843C611.966 179.987 611.81 178.826 611.221 177.96C611.529 176.737 611.31 175.113 610.534 172.855C610.07 172.917 609.869 173.18 609.931 173.645C609.994 174.109 609.793 174.372 609.793 174.372C604.678 180.259 601.032 184.767 599.086 187.864C597.216 189.77 594.341 192.992 590.726 197.732C586.879 202.503 583.773 205.757 581.47 207.957C580.666 209.01 579.461 210.59 577.56 212.264C575.659 213.937 574.422 215.285 573.851 216.307C572.521 216.959 571.856 217.285 571.919 217.749C570.928 217.41 570.758 217.905 570.883 218.833C570.187 218.927 569.553 219.485 568.951 220.275C568.348 221.065 567.915 221.359 567.915 221.359C567.683 221.391 567.219 221.453 566.692 221.052C566.491 221.315 566.554 221.779 566.616 222.243L565.688 222.368C565.224 222.431 564.76 222.493 564.729 222.261C564.791 222.725 564.853 223.189 565.086 223.158C564.452 223.716 563.756 223.81 562.765 223.471C562.733 223.238 562.702 223.006 562.702 223.006C562.702 223.006 562.903 222.743 563.367 222.681C563.831 222.618 564.032 222.355 564.264 222.323C564.697 222.029 565.099 221.502 565.733 220.944C566.134 220.418 566.799 220.092 567.232 219.797C567.665 219.503 568.067 218.976 568.469 218.45C568.87 217.923 569.241 217.164 569.642 216.638C569.642 216.638 569.875 216.606 570.307 216.312C570.54 216.28 570.74 216.017 571.205 215.955C571.205 215.955 571.374 215.459 571.312 214.995L571.575 215.196C571.575 215.196 571.575 215.196 571.807 215.165C572.039 215.133 572.039 215.133 572.008 214.901C571.745 214.701 571.713 214.468 571.682 214.236C572.61 214.111 573.445 213.29 574.248 212.237C575.052 211.184 575.886 210.362 576.52 209.805C576.859 208.814 577.493 208.256 578.189 208.162L579.394 206.582C579.595 206.319 579.827 206.288 580.292 206.225C580.97 204.243 582.005 203.159 583.166 203.003C583.938 201.717 585.344 199.874 587.383 197.473C589.423 195.072 590.86 193.461 591.664 192.407C591.664 192.407 591.896 192.376 592.097 192.113C592.097 192.113 592.329 192.082 592.561 192.05C593.471 190.037 594.908 188.426 596.64 187.248C597.751 184.972 599.76 182.339 602.634 179.116C602.509 178.188 603.143 177.63 604.535 177.443C604.642 176.483 605.013 175.724 605.816 174.671C606.388 173.649 607.191 172.596 608.226 171.511C609.262 170.427 610.096 169.605 610.467 168.847C609.775 160.197 609.824 150.03 610.119 138.176C610.101 136.288 609.99 133.704 610.016 130.392C610.043 127.081 609.963 124.729 610.008 123.305C609.883 122.377 609.927 120.953 610.141 119.034C610.356 117.115 610.4 115.691 610.275 114.763C610.213 114.298 610.133 111.946 610.066 107.938C609.941 107.01 609.722 105.386 609.905 103.234C609.856 101.114 609.869 99.4585 609.976 98.499C609.851 97.5707 609.865 95.9148 610.048 93.7636C610.262 91.8445 610.539 90.3895 610.476 89.9253L610.133 87.3724C610.441 86.1495 610.347 85.4533 610.284 84.9891L610.887 84.1992C609.771 82.9316 609.615 81.7712 610.418 80.7179C610.191 72.0059 610.307 65.8468 610.735 62.0085C610.704 61.7764 610.673 61.5444 610.642 61.3123C610.41 61.3435 610.378 61.1114 610.347 60.8793C610.655 59.6564 610.932 58.2015 610.682 56.3448C610.896 54.4257 611.186 51.3149 611.32 47.0437C611.454 42.7725 611.744 39.6617 612.159 37.4792L611.508 36.1492C611.878 35.3905 611.923 33.9667 611.905 32.0788C611.655 30.2222 611.932 28.7672 612.271 27.7764C613.726 28.0531 614.485 28.4236 615.011 28.8252C614.69 31.704 614.413 33.1589 613.98 33.4535C614.306 34.1185 614.601 34.5514 614.601 34.5514C614.11 37.9255 613.601 51.6987 612.811 75.6701C612.953 78.4864 612.927 81.798 612.793 86.0692C612.659 90.3404 612.601 93.42 612.882 95.5087C612.681 95.772 612.512 96.2674 612.605 96.9637C612.73 97.892 612.561 98.3874 612.328 98.4187C612.391 98.8828 612.686 99.3158 612.81 100.244C612.935 101.172 612.766 101.668 612.565 101.931C612.806 108.987 612.859 114.651 612.525 119.186C612.685 123.89 612.694 130.977 612.614 140.912C612.533 150.847 612.667 158.863 613.216 164.696C614.283 163.844 615.72 162.232 617.264 159.662C618.84 157.323 620.045 155.743 621.08 154.658L621.344 154.859C621.375 155.091 621.607 155.06 621.839 155.029C621.839 155.029 621.808 154.797 621.777 154.565C621.544 154.596 621.513 154.364 621.714 154.101C622.317 153.311 623.321 151.994 624.495 150.182C625.668 148.37 626.641 146.821 627.646 145.505C628.418 144.219 629.422 142.903 630.689 141.787C630.627 141.323 630.596 141.091 630.997 140.564C631.198 140.301 631.631 140.006 632.033 139.479C632.435 138.953 632.635 138.69 632.836 138.426C632.805 138.194 632.774 137.962 632.943 137.467C632.912 137.235 633.113 136.971 633.082 136.739C633.948 136.15 634.751 135.097 635.492 133.579C636.233 132.062 637.067 131.241 637.933 130.651C639.352 127.152 640.897 124.582 642.999 122.645C643.709 120.895 644.789 118.387 646.703 115.057C648.386 111.759 649.296 109.746 649.667 108.988L649.93 109.188L650.394 109.126C650.394 109.126 650.131 108.925 650.1 108.693C650.069 108.461 650.037 108.229 650.238 107.966C651.042 106.912 651.983 105.131 653.032 102.391C654.112 99.8828 655.023 97.87 656.058 96.7854C655.933 95.8571 656.272 94.8663 657.54 93.7505C657.817 92.2956 658.928 90.0194 660.673 87.1853C660.611 86.7211 660.981 85.9624 661.32 84.9716C661.691 84.2129 662.061 83.4541 661.967 82.7579C662.432 82.6954 662.601 82.2 662.972 81.4413C663.11 80.7138 663.28 80.2184 663.744 80.1559C663.851 79.1963 664.391 77.9422 665.069 75.9606C665.748 73.979 666.024 72.524 666.332 71.3011C667.752 67.802 669.399 60.728 671.01 49.8781C670.885 48.9498 670.791 48.2536 671.224 47.959C670.836 46.8298 670.586 44.9732 670.273 42.6524C669.961 40.3315 669.943 38.4436 669.787 37.2832C669.198 36.4174 668.81 35.2882 668.622 33.8957C665.302 26.7815 659.089 21.0017 650.448 16.4939C650.016 16.7884 649.288 16.6501 648.266 16.0788C647.275 15.7396 646.548 15.6012 645.852 15.695C643.87 15.0165 642.152 14.539 640.465 14.2935C638.777 14.048 636.363 13.6642 633.515 13.5749C630.436 13.5168 628.548 13.5347 627.588 13.4276C621.322 14.271 617.609 14.7709 616.417 14.695C615.319 15.3154 614.19 15.7037 612.967 15.3957C596.94 19.2071 581.458 25.3081 567.015 33.8683L566.845 34.3637C566.644 34.627 566.676 34.8591 566.676 34.8591C560.954 37.9922 556.687 41.4019 553.38 44.9189C552.081 45.8026 551.014 46.655 550.211 47.7083C549.176 48.7928 548.14 49.8774 547.105 50.9619C546.101 52.2785 545.297 53.3318 544.663 53.8897C544.463 54.153 544.293 54.6484 543.891 55.175C543.49 55.7017 543.088 56.2283 543.15 56.6925C541.713 58.3037 539.968 61.1378 538.178 65.3956C536.389 69.6534 534.411 72.5187 532.51 74.1923C532.586 73.0007 532.724 72.2732 532.925 72.0099C532.693 72.0411 532.662 71.809 532.631 71.5769C532.367 71.3761 532.336 71.144 532.305 70.9119C536.349 62.3338 539.807 56.4336 542.682 53.2113L542.651 52.9792C542.619 52.7471 542.588 52.515 542.789 52.2517L543.485 52.158C543.485 52.158 543.655 51.6626 544.056 51.1359C544.628 50.1139 545.261 49.556 545.958 49.4623C546.699 47.9448 547.904 46.3649 549.573 44.7225C551.041 43.3434 552.974 41.9018 555.107 40.1969C557.241 38.492 558.74 37.345 559.776 36.2604C560.039 36.4613 560.271 36.43 560.472 36.1667C560.704 36.1355 560.905 35.8722 561.137 35.8409C562.637 34.6939 563.734 34.0735 564.199 34.0111C564.368 33.5157 567.198 31.717 572.455 28.6464C576.615 26.1962 579.275 24.893 580.668 24.7056C581.132 24.6431 581.565 24.3485 581.797 24.3173C581.797 24.3173 581.998 24.054 582.431 23.7594C582.631 23.4961 582.832 23.2328 583.033 22.9694C584.89 22.7195 585.787 22.3625 585.724 21.8983C585.724 21.8983 585.988 22.0991 586.019 22.3312C586.05 22.5633 586.282 22.5321 586.483 22.2687C586.885 21.7421 587.983 21.1217 589.808 20.6397C591.401 20.189 592.499 19.5686 593.365 18.9795C593.892 19.3812 594.325 19.0866 595.191 18.4975C596.056 17.9083 596.753 17.8146 597.511 18.1851C597.743 18.1538 598.176 17.8593 598.609 17.5647C599.074 17.5022 599.274 17.2389 599.475 16.9756C600.002 17.3773 600.435 17.0827 601.069 16.5248L601.702 15.9669C601.702 15.9669 601.966 16.1678 602.198 16.1365C602.461 16.3374 602.693 16.3061 603.157 16.2436C603.621 16.1812 604.318 16.0874 605.416 15.4671C606.514 14.8467 607.411 14.4897 607.875 14.4272C608.107 14.3959 608.602 14.5655 609.066 14.5031C609.562 14.6727 610.026 14.6102 610.258 14.5789C610.49 14.5477 610.954 14.4852 611.387 14.1907C611.82 13.8961 612.021 13.6328 612.485 13.5703L614.806 13.2579L614.869 13.722C614.9 13.9541 615.132 13.9229 615.333 13.6596C615.734 13.1329 616.631 12.7759 618.024 12.5884C619.416 12.401 620.345 12.276 621.104 12.6465C621.769 12.3207 622.929 12.1645 624.321 11.977C625.745 12.0217 626.906 11.8655 627.539 11.3076C629.057 12.0485 630.481 12.0931 632.243 11.1469C633.002 11.5174 634.225 11.8254 635.85 11.6067C637.505 11.6201 638.728 11.928 639.487 12.2985C639.487 12.2985 639.719 12.2672 639.92 12.0039C639.92 12.0039 640.152 11.9727 640.384 11.9414C649.052 13.1376 656.639 16.842 663.084 22.5906C669.528 28.3391 672.911 35.9175 673.433 45.0625C673.233 45.3258 673.264 45.5579 673.496 45.5266C673.527 45.7587 673.79 45.9595 673.79 45.9595C673.822 46.1916 673.683 46.9191 673.607 48.1108C673.331 49.5657 673.456 50.4941 673.781 51.1591C673.411 51.9178 673.166 53.6049 673.014 55.9882C672.893 58.6036 672.447 60.5539 671.675 61.8393C671.416 65.1822 670.153 69.8417 668.055 75.3224C668.118 75.7865 668.118 75.7865 667.653 75.849C667.716 76.3132 667.81 77.0094 667.408 77.5361C667.006 78.0627 666.837 78.5581 667.1 78.759C666.698 79.2856 666.127 80.3077 665.618 81.7939C665.109 83.2801 664.538 84.3021 664.136 84.8288L664.293 85.9892C663.119 87.8012 661.436 91.0995 659.044 96.1472C656.652 101.195 654.567 105.02 653.023 107.591C652.715 108.814 651.974 110.331 650.832 112.375C649.689 114.419 649.18 115.905 648.841 116.896C648.408 117.191 648.207 117.454 648.239 117.686C648.038 117.95 647.806 117.981 647.806 117.981C647.466 118.972 647.127 119.962 646.355 121.248C645.583 122.533 645.012 123.555 644.873 124.283C643.668 125.863 642.695 127.411 641.722 128.96C640.517 130.54 639.343 132.352 638.201 134.396C637.058 136.44 636.085 137.989 635.514 139.011C635.313 139.274 635.081 139.305 634.617 139.368C630.725 145.563 623.589 155.739 613.145 169.431ZM600.876 183.606C600.844 183.374 600.581 183.173 600.55 182.941C600.612 183.405 600.643 183.637 600.876 183.606Z"></path>
<g clip-path="url(#clip0_970_10501)">
<path fill="#FDFCFB" d="M817.581 373.634C796.114 373.634 777.7 369.104 762.339 360.045C747.174 350.985 735.555 338.381 727.48 322.232C719.406 306.083 715.368 287.669 715.368 266.99C715.368 245.917 719.504 227.306 727.776 211.157C736.047 195.008 747.765 182.403 762.93 173.344C778.291 164.285 796.705 159.755 818.172 159.755C839.639 159.755 857.954 164.285 873.118 173.344C888.283 182.206 899.903 194.712 907.977 210.861C916.249 226.814 920.384 245.326 920.384 266.399C920.384 287.078 916.347 305.492 908.273 321.641C900.198 337.79 888.48 350.493 873.118 359.749C857.757 369.005 839.245 373.634 817.581 373.634ZM818.172 337.298C832.746 337.298 844.66 333.95 853.917 327.254C863.173 320.361 869.869 311.597 874.005 300.962C878.337 290.327 880.504 279.003 880.504 266.99C880.504 257.93 879.322 249.265 876.959 240.994C874.596 232.525 870.854 224.943 865.733 218.247C860.81 211.354 854.409 205.938 846.531 201.999C838.654 198.06 829.102 196.091 817.876 196.091C803.5 196.091 791.683 199.439 782.427 206.135C773.171 212.831 766.278 221.595 761.748 232.427C757.415 243.061 755.249 254.582 755.249 266.99C755.249 279.2 757.415 290.623 761.748 301.258C766.278 311.892 773.171 320.558 782.427 327.254C791.683 333.95 803.598 337.298 818.172 337.298Z"></path>
<path fill="#FDFCFB" d="M891.126 136.535L883.972 160.051L769.233 126.77L776.388 103.253L891.126 136.535Z"></path>
<path fill="#FDFCFB" d="M235.168 373.634C213.702 373.634 195.288 369.104 179.926 360.045C164.762 350.985 153.142 338.381 145.068 322.232C136.993 306.083 132.956 287.669 132.956 266.99C132.956 245.917 137.091 227.306 145.363 211.157C153.635 195.008 165.353 182.403 180.517 173.344C195.878 164.285 214.293 159.755 235.759 159.755C257.226 159.755 275.541 164.285 290.706 173.344C305.87 182.206 317.49 194.712 325.564 210.861C333.836 226.814 337.972 245.326 337.972 266.399C337.972 287.078 333.934 305.492 325.86 321.641C317.785 337.79 306.067 350.493 290.706 359.749C275.344 369.005 256.832 373.634 235.168 373.634ZM235.759 337.298C250.333 337.298 262.248 333.95 271.504 327.254C280.76 320.361 287.456 311.597 291.592 300.962C295.925 290.327 298.091 279.003 298.091 266.99C298.091 257.93 296.909 249.265 294.546 240.994C292.183 232.525 288.441 224.943 283.32 218.247C278.397 211.354 271.996 205.938 264.119 201.999C256.241 198.06 246.689 196.091 235.464 196.091C221.087 196.091 209.271 199.439 200.014 206.135C190.758 212.831 183.865 221.595 179.335 232.427C175.003 243.061 172.836 254.582 172.836 266.99C172.836 279.2 175.003 290.623 179.335 301.258C183.865 311.892 190.758 320.558 200.014 327.254C209.271 333.95 221.185 337.298 235.759 337.298Z"></path>
<path fill="#FDFCFB" d="M400.358 371.848V293.859L323.255 162.991H368.453L420.151 256.932L472.143 162.991H516.455L439.352 293.563V371.848H400.358Z"></path>
<path fill="#FDFCFB" d="M535.673 371.848V162.991H623.706C633.356 162.991 642.218 163.878 650.293 165.65C658.564 167.226 665.654 170.081 671.562 174.217C677.471 178.353 682.099 183.867 685.447 190.76C688.795 197.653 690.469 206.318 690.469 216.756C690.469 226.013 688.302 234.481 683.97 242.162C679.834 249.646 673.729 255.357 665.654 259.296C676.683 262.447 685.151 268.158 691.06 276.43C697.165 284.701 700.217 295.533 700.217 308.925C700.217 320.938 697.953 330.982 693.423 339.057C688.893 347.132 682.69 353.631 674.812 358.554C667.131 363.281 658.072 366.727 647.634 368.894C637.393 370.863 626.463 371.848 614.843 371.848H535.673ZM574.963 336.103H618.684C624.198 336.103 629.417 335.709 634.34 334.921C639.461 334.133 643.991 332.755 647.929 330.785C652.065 328.816 655.216 326.059 657.383 322.514C659.746 318.772 660.928 314.144 660.928 308.63C660.928 303.509 659.943 299.275 657.973 295.927C656.201 292.579 653.641 289.92 650.293 287.951C647.142 285.784 643.301 284.307 638.772 283.519C634.439 282.535 629.712 282.042 624.592 282.042H574.963V336.103ZM574.963 249.547H613.662C619.57 249.547 624.789 249.055 629.318 248.07C634.045 246.888 638.082 245.116 641.43 242.753C644.778 240.389 647.339 237.435 649.111 233.89C650.884 230.345 651.77 226.111 651.77 221.188C651.967 214.688 650.49 209.863 647.339 206.712C644.384 203.561 640.347 201.493 635.227 200.509C630.106 199.327 624.395 198.736 618.093 198.736H574.963V249.547Z"></path>
</g>
<defs>
<clipPath id="clip0_970_10501">
<rect transform="translate(133.303 101.293)" fill="white" height="279.707" width="787.081"></rect>
</clipPath>
</defs>
</svg>
